<svg width="25" height="25" viewBox="0 0 25 25" fill="none" xmlns="http://www.w3.org/2000/svg">
<path d="M11.4938 17.0458C10.446 17.5754 9.26728 17.7903 8.09998 17.6647C6.93267 17.5391 5.82668 17.0783 4.91548 16.3379C4.00428 15.5976 3.32684 14.6094 2.96491 13.4925C2.60298 12.3756 2.57205 11.1779 2.87584 10.0438L8.28784 11.4938C7.75831 10.446 7.54339 9.26728 7.669 8.09998C7.79461 6.93267 8.2554 5.82668 8.99573 4.91548C9.73606 4.00428 10.7243 3.32684 11.8412 2.96491C12.958 2.60298 14.1558 2.57205 15.2898 2.87584L13.8398 8.28784C14.8877 7.75831 16.0664 7.54339 17.2337 7.669C18.401 7.79461 19.507 8.2554 20.4182 8.99573C21.3294 9.73606 22.0068 10.7243 22.3688 11.8412C22.7307 12.958 22.7616 14.1558 22.4578 15.2898L17.0458 13.8398C17.5754 14.8877 17.7903 16.0664 17.6647 17.2337C17.5391 18.401 17.0783 19.507 16.3379 20.4182C15.5976 21.3294 14.6094 22.0068 13.4925 22.3688C12.3756 22.7307 11.1779 22.7616 10.0438 22.4578L11.4938 17.0458Z" stroke="#2563EB" stroke-width="2" stroke-linecap="round" stroke-linejoin="round"/>
<path d="M12.6667 12.6668V12.6768" stroke="#2563EB" stroke-width="2" stroke-linecap="round" stroke-linejoin="round"/>
</svg>
