<svg width="25" height="24" viewBox="0 0 25 24" fill="none" xmlns="http://www.w3.org/2000/svg">
<path d="M20.6667 4.00006H4.66675C3.56218 4.00006 2.66675 4.89549 2.66675 6.00006V17.0001C2.66675 18.1046 3.56218 19.0001 4.66675 19.0001H20.6667C21.7713 19.0001 22.6667 18.1046 22.6667 17.0001V6.00006C22.6667 4.89549 21.7713 4.00006 20.6667 4.00006Z" stroke="#2563EB" stroke-width="2" stroke-linecap="round" stroke-linejoin="round"/>
<path d="M13.6667 8.00006H7.66675C7.11446 8.00006 6.66675 8.44778 6.66675 9.00006V14.0001C6.66675 14.5523 7.11446 15.0001 7.66675 15.0001H13.6667C14.219 15.0001 14.6667 14.5523 14.6667 14.0001V9.00006C14.6667 8.44778 14.219 8.00006 13.6667 8.00006Z" stroke="#2563EB" stroke-width="2" stroke-linecap="round" stroke-linejoin="round"/>
<path d="M18.6667 8.00006V15.0001" stroke="#2563EB" stroke-width="2" stroke-linecap="round" stroke-linejoin="round"/>
<path d="M6.66675 19.0001V21.0001" stroke="#2563EB" stroke-width="2" stroke-linecap="round" stroke-linejoin="round"/>
<path d="M18.6667 19.0001V21.0001" stroke="#2563EB" stroke-width="2" stroke-linecap="round" stroke-linejoin="round"/>
</svg>
