<svg width="25" height="25" viewBox="0 0 25 25" fill="none" xmlns="http://www.w3.org/2000/svg">
<path d="M5.66675 6.66681C5.66675 5.60594 6.08818 4.58853 6.83832 3.83838C7.58847 3.08824 8.60588 2.66681 9.66675 2.66681H15.6667C16.7276 2.66681 17.745 3.08824 18.4952 3.83838C19.2453 4.58853 19.6667 5.60594 19.6667 6.66681V20.6668C19.6667 21.1972 19.456 21.7059 19.081 22.081C18.7059 22.4561 18.1972 22.6668 17.6667 22.6668H7.66675C7.13632 22.6668 6.62761 22.4561 6.25253 22.081C5.87746 21.7059 5.66675 21.1972 5.66675 20.6668V6.66681Z" stroke="#2563EB" stroke-width="2" stroke-linecap="round" stroke-linejoin="round"/>
<path d="M5.66675 10.6668H19.6667" stroke="#2563EB" stroke-width="2" stroke-linecap="round" stroke-linejoin="round"/>
<path d="M15.6667 7.66681V13.6668" stroke="#2563EB" stroke-width="2" stroke-linecap="round" stroke-linejoin="round"/>
</svg>
