<svg width="25" height="25" viewBox="0 0 25 25" fill="none" xmlns="http://www.w3.org/2000/svg">
<path d="M3.66675 6.33344H6.66675" stroke="#2563EB" stroke-width="2" stroke-linecap="round" stroke-linejoin="round"/>
<path d="M17.6667 6.33344H17.6767" stroke="#2563EB" stroke-width="2" stroke-linecap="round" stroke-linejoin="round"/>
<path d="M19.6667 2.33344H5.66675C4.56218 2.33344 3.66675 3.22887 3.66675 4.33344V20.3334C3.66675 21.438 4.56218 22.3334 5.66675 22.3334H19.6667C20.7713 22.3334 21.6667 21.438 21.6667 20.3334V4.33344C21.6667 3.22887 20.7713 2.33344 19.6667 2.33344Z" stroke="#2563EB" stroke-width="2" stroke-linecap="round" stroke-linejoin="round"/>
<path d="M12.6667 18.3334C15.4282 18.3334 17.6667 16.0949 17.6667 13.3334C17.6667 10.572 15.4282 8.33344 12.6667 8.33344C9.90532 8.33344 7.66675 10.572 7.66675 13.3334C7.66675 16.0949 9.90532 18.3334 12.6667 18.3334Z" stroke="#2563EB" stroke-width="2" stroke-linecap="round" stroke-linejoin="round"/>
<path d="M12.6667 18.3334C13.3298 18.3334 13.9657 18.07 14.4345 17.6012C14.9034 17.1324 15.1667 16.4965 15.1667 15.8334C15.1667 15.1704 14.9034 14.5345 14.4345 14.0657C13.9657 13.5968 13.3298 13.3334 12.6667 13.3334C12.0037 13.3334 11.3678 13.07 10.899 12.6012C10.4301 12.1324 10.1667 11.4965 10.1667 10.8334C10.1667 10.1704 10.4301 9.53451 10.899 9.06567C11.3678 8.59683 12.0037 8.33344 12.6667 8.33344" stroke="#2563EB" stroke-width="2" stroke-linecap="round" stroke-linejoin="round"/>
</svg>
