<?xml version="1.0" encoding="UTF-8"?>
<svg version="1.1" xmlns="http://www.w3.org/2000/svg" width="354" height="325">
<path d="M0 0 C0.91652344 -0.02578125 1.83304687 -0.0515625 2.77734375 -0.078125 C3.90849609 0.08429688 3.90849609 0.08429688 5.0625 0.25 C7.59747759 4.05246639 7.59677032 7.40777332 7.87890625 11.8359375 C7.94029282 12.6887027 8.00167938 13.5414679 8.06492615 14.42007446 C8.25991562 17.15453961 8.44269236 19.88966293 8.625 22.625 C8.75113414 24.42844288 8.87807872 26.23182928 9.00585938 28.03515625 C9.2515556 31.51503661 9.49302579 34.99516642 9.73095703 38.47558594 C10.1386446 44.40324788 10.59223417 50.32697119 11.0625 56.25 C9.7425 56.25 8.4225 56.25 7.0625 56.25 C6.78277344 55.2084375 6.50304687 54.166875 6.21484375 53.09375 C-0.17003926 28.67834387 -0.17003926 28.67834387 -15.9375 10.25 C-25.73461518 6.67028484 -36.31294883 7.03663676 -46.60571289 7.00976562 C-48.89439359 6.99991654 -51.1822268 6.96874533 -53.47070312 6.9375 C-54.92707806 6.93098159 -56.38345932 6.92572658 -57.83984375 6.921875 C-59.15460693 6.9125293 -60.46937012 6.90318359 -61.82397461 6.89355469 C-62.85143799 7.01118164 -63.87890137 7.12880859 -64.9375 7.25 C-67.30978794 10.80843191 -67.18567164 12.32161307 -67.18041992 16.54150391 C-67.18349655 17.8393985 -67.18657318 19.13729309 -67.18974304 20.47451782 C-67.18284633 21.89186785 -67.17557944 23.30921612 -67.16796875 24.7265625 C-67.16677671 26.17719482 -67.16632384 27.62782791 -67.1665802 29.07846069 C-67.16501655 32.11648397 -67.15673445 35.15438922 -67.14331055 38.19238281 C-67.12629057 42.0944415 -67.12249712 45.99637083 -67.12325573 49.8984623 C-67.12298441 52.89235681 -67.11750993 55.88622282 -67.11025429 58.88010788 C-67.10706378 60.31947997 -67.10509932 61.7588553 -67.10436058 63.19823074 C-67.10220279 65.20459397 -67.09267405 67.21094525 -67.08276367 69.21728516 C-67.07895187 70.36073395 -67.07514008 71.50418274 -67.07121277 72.68228149 C-67.22826107 75.18236477 -67.22826107 75.18236477 -65.9375 76.25 C-63.09405771 76.35155151 -60.2808328 76.39187939 -57.4375 76.375 C-56.61612549 76.37016602 -55.79475098 76.36533203 -54.94848633 76.36035156 C-43.52497103 76.67218155 -43.52497103 76.67218155 -33.9375 71.25 C-32.35657426 68.42399604 -32.35657426 68.42399604 -31.25 65.3125 C-30.85425781 64.29285156 -30.45851563 63.27320313 -30.05078125 62.22265625 C-29.49970703 60.75119141 -29.49970703 60.75119141 -28.9375 59.25 C-28.27434686 57.58193221 -27.60892131 55.91475694 -26.9375 54.25 C-25.6175 54.25 -24.2975 54.25 -22.9375 54.25 C-23.06318359 56.17585938 -23.06318359 56.17585938 -23.19140625 58.140625 C-24.13514778 73.9565872 -23.77435777 89.50550483 -21.9375 105.25 C-23.2575 105.58 -24.5775 105.91 -25.9375 106.25 C-26.30101562 105.17621094 -26.66453125 104.10242188 -27.0390625 102.99609375 C-30.77246606 92.10081534 -30.77246606 92.10081534 -37.9375 83.25 C-41.17501678 82.17082774 -43.51501771 82.13574399 -46.91796875 82.15234375 C-48.08134766 82.15556641 -49.24472656 82.15878906 -50.44335938 82.16210938 C-52.26577148 82.17467773 -52.26577148 82.17467773 -54.125 82.1875 C-55.96481445 82.19426758 -55.96481445 82.19426758 -57.84179688 82.20117188 C-60.87374668 82.21296935 -63.90559906 82.22943079 -66.9375 82.25 C-67.00716439 89.57818856 -67.06039432 96.90630512 -67.09293652 104.23475838 C-67.10855917 107.63807031 -67.12973435 111.04115485 -67.16381836 114.44433594 C-67.20280034 118.36129997 -67.2172374 122.27817351 -67.23046875 126.1953125 C-67.24595261 127.41115021 -67.26143646 128.62698792 -67.27738953 129.87966919 C-67.3394481 138.00016627 -67.3394481 138.00016627 -63.9375 145.25 C-59.5235742 149.11218507 -53.55317698 149.41404108 -47.9375 150.25 C-47.9375 151.57 -47.9375 152.89 -47.9375 154.25 C-67.0775 154.25 -86.2175 154.25 -105.9375 154.25 C-105.4425 152.27 -105.4425 152.27 -104.9375 150.25 C-102.9765625 149.37890625 -102.9765625 149.37890625 -100.5625 148.8125 C-96.71695136 147.7035523 -96.71695136 147.7035523 -93.9375 144.8125 C-92.38724452 140.83997033 -91.81149266 137.49031341 -91.79705811 133.22245789 C-91.79134796 132.20896271 -91.78563782 131.19546753 -91.77975464 130.15126038 C-91.77807785 128.49216896 -91.77807785 128.49216896 -91.77636719 126.79956055 C-91.77140228 125.63003845 -91.76643738 124.46051636 -91.76132202 123.2555542 C-91.74670466 119.38260309 -91.73989923 115.50969293 -91.734375 111.63671875 C-91.73163853 110.30082487 -91.72878208 108.96493123 -91.72580719 107.62903786 C-91.71213994 101.35261999 -91.7024695 95.07621512 -91.6986053 88.79978341 C-91.69412625 81.56537644 -91.67658241 74.33115857 -91.6476047 67.09680909 C-91.62595821 61.49751072 -91.61589944 55.89826545 -91.61456418 50.2989257 C-91.61351826 46.95802326 -91.60620136 43.61743996 -91.58974457 40.27655602 C-91.5726844 36.54709939 -91.57456458 32.81810289 -91.58105469 29.08862305 C-91.5718399 27.9886348 -91.56262512 26.88864655 -91.5531311 25.75532532 C-91.58916484 19.14303751 -91.85925894 13.43817824 -96.6875 8.4375 C-99.66146251 6.86790868 -102.6846338 6.06321655 -105.9375 5.25 C-105.6075 3.93 -105.2775 2.61 -104.9375 1.25 C-103.82995865 1.25222061 -102.7224173 1.25444122 -101.58131409 1.25672913 C-91.12094014 1.27704026 -80.66057023 1.29201049 -70.20018101 1.30181217 C-64.82298012 1.30702077 -59.44579521 1.31408157 -54.06860352 1.32543945 C-48.87499269 1.33634036 -43.68139719 1.34229207 -38.4877758 1.34487724 C-36.51074927 1.34671853 -34.53372354 1.35031405 -32.55670357 1.35573006 C-29.77809999 1.36303618 -26.99955897 1.36398692 -24.22094727 1.36352539 C-23.41173828 1.36712067 -22.6025293 1.37071594 -21.76879883 1.37442017 C-17.09049302 1.36606424 -12.53670125 1.06593406 -7.89382839 0.4845953 C-5.26077535 0.16884981 -2.65064539 0.04563521 0 0 Z " fill="#6996F7" transform="translate(280.9375,80.75)"/>
<path d="M0 0 C18.48 0 36.96 0 56 0 C56.495 1.98 56.495 1.98 57 4 C56.18015625 4.15855469 55.3603125 4.31710938 54.515625 4.48046875 C47.8111172 5.7977352 47.8111172 5.7977352 42.3125 9.5625 C40.39329078 13.12674569 39.86729537 15.04365046 39.82832336 19.10420227 C39.81564423 20.18515167 39.80296509 21.26610107 39.78990173 22.37980652 C39.78100418 23.57100601 39.77210663 24.76220551 39.76293945 25.98950195 C39.74982727 27.23997314 39.73671509 28.49044434 39.72320557 29.77880859 C39.6885076 33.21485422 39.65834296 36.6508764 39.63081384 40.08698297 C39.61332011 42.23351325 39.59444244 44.38002671 39.57506371 46.52654076 C39.50748383 54.01464746 39.44508203 61.50277708 39.38745117 68.9909668 C39.33359577 75.97105559 39.26849394 82.95097807 39.19811279 89.93091804 C39.13819456 95.92244157 39.08614115 101.91400016 39.04018563 107.90564698 C39.01260215 111.48456594 38.98184144 115.06338837 38.94317055 118.64220619 C38.9003433 122.63554247 38.87385827 126.62882667 38.84887695 130.62231445 C38.83390671 131.80744125 38.81893646 132.99256805 38.80351257 134.21360779 C38.79718307 135.8477211 38.79718307 135.8477211 38.79072571 137.5148468 C38.7828066 138.45893056 38.77488749 139.40301432 38.7667284 140.37570667 C39.02132865 143.23994621 39.80886916 145.39646554 41 148 C60.77062447 148.51130925 82.67689201 147.41322149 98.73046875 134.62109375 C108.95975994 124.54958083 111.6465621 104.53437898 113 91 C114.32 90.67 115.64 90.34 117 90 C118.1992138 93.5483804 117.79724512 96.174142 117.15625 99.83203125 C116.1757993 106.17946252 115.61620159 112.4773354 115.21875 118.88671875 C115.15864746 119.84393829 115.09854492 120.80115784 115.03662109 121.78738403 C114.79084399 125.77244286 114.55390555 129.75796333 114.32275391 133.74389648 C114.14989994 136.68785998 113.96619275 139.63099371 113.78125 142.57421875 C113.70771301 143.92878426 113.70771301 143.92878426 113.63269043 145.31071472 C113.57923462 146.14621353 113.52577881 146.98171234 113.47070312 147.8425293 C113.42788208 148.57529587 113.38506104 149.30806244 113.34094238 150.06303406 C113 152 113 152 111 155 C108.99729919 155.25770569 108.99729919 155.25770569 106.50170898 155.09399414 C105.56456558 155.04206406 104.62742218 154.99013397 103.66188049 154.93663025 C102.63779587 154.86601883 101.61371124 154.79540741 100.55859375 154.72265625 C98.35675326 154.6003842 96.15475916 154.4808539 93.95263672 154.36376953 C92.80527039 154.30022278 91.65790405 154.23667603 90.47576904 154.17120361 C84.91427813 153.897265 79.35208225 153.78487384 73.78515625 153.68359375 C72.67260971 153.66240982 71.56006317 153.64122589 70.4138031 153.61940002 C66.963416 153.55568029 63.51297551 153.49622138 60.0625 153.4375 C58.27886551 153.40573166 58.27886551 153.40573166 56.459198 153.37332153 C37.3045797 153.03391083 18.15726312 152.85902614 -1 153 C-0.505 151.02 -0.505 151.02 0 149 C0.61488281 148.86722656 1.22976562 148.73445312 1.86328125 148.59765625 C3.07564453 148.33275391 3.07564453 148.33275391 4.3125 148.0625 C5.11300781 147.88847656 5.91351563 147.71445313 6.73828125 147.53515625 C9.145401 147.00113841 9.145401 147.00113841 12 146 C14.19657818 141.24408488 14.31025871 136.56057311 14.3347168 131.41308594 C14.34636871 130.56949524 14.35802063 129.72590454 14.37002563 128.85675049 C14.40599099 126.06597808 14.42791973 123.27529504 14.44921875 120.484375 C14.47052811 118.51173199 14.49249787 116.53909601 14.51509094 114.56646729 C14.56053064 110.41381202 14.59926637 106.26116446 14.63305664 102.10839844 C14.67581199 96.8934441 14.73280452 91.67877326 14.79443169 86.46401215 C15.01095846 67.84282581 15.18534302 49.2154276 14.75690651 30.59601593 C14.72413374 29.14686518 14.69566058 27.6976096 14.67188072 26.24828339 C14.63708596 24.2801105 14.58044286 22.31236004 14.52270508 20.34472656 C14.48044548 18.71111176 14.48044548 18.71111176 14.43733215 17.04449463 C13.92723368 13.49343613 12.85591938 11.06000549 11 8 C8.14521674 6.09681116 6.58058692 5.5380901 3.3125 4.875 C2.50425781 4.70742187 1.69601563 4.53984375 0.86328125 4.3671875 C0.24839844 4.24601562 -0.36648437 4.12484375 -1 4 C-0.67 2.68 -0.34 1.36 0 0 Z " fill="#155CF3" transform="translate(56,82)"/>
<path d="M0 0 C0.91652344 -0.02578125 1.83304687 -0.0515625 2.77734375 -0.078125 C3.90849609 0.08429688 3.90849609 0.08429688 5.0625 0.25 C7.59747759 4.05246639 7.59677032 7.40777332 7.87890625 11.8359375 C7.94029282 12.6887027 8.00167938 13.5414679 8.06492615 14.42007446 C8.25991562 17.15453961 8.44269236 19.88966293 8.625 22.625 C8.75113414 24.42844288 8.87807872 26.23182928 9.00585938 28.03515625 C9.2515556 31.51503661 9.49302579 34.99516642 9.73095703 38.47558594 C10.1386446 44.40324788 10.59223417 50.32697119 11.0625 56.25 C9.7425 56.25 8.4225 56.25 7.0625 56.25 C6.78277344 55.2084375 6.50304687 54.166875 6.21484375 53.09375 C-0.17003926 28.67834387 -0.17003926 28.67834387 -15.9375 10.25 C-25.73461518 6.67028484 -36.31294883 7.03663676 -46.60571289 7.00976562 C-48.89439359 6.99991654 -51.1822268 6.96874533 -53.47070312 6.9375 C-54.92707806 6.93098159 -56.38345932 6.92572658 -57.83984375 6.921875 C-59.15460693 6.9125293 -60.46937012 6.90318359 -61.82397461 6.89355469 C-62.85143799 7.01118164 -63.87890137 7.12880859 -64.9375 7.25 C-67.29996505 10.79369758 -67.20754845 12.35250808 -67.25634766 16.55737305 C-67.27621735 17.85849533 -67.29608704 19.15961761 -67.31655884 20.50016785 C-67.32843531 21.92068309 -67.34009816 23.34120012 -67.3515625 24.76171875 C-67.37027235 26.21475833 -67.38984562 27.66778703 -67.4102478 29.12080383 C-67.46159464 32.94297877 -67.50120653 36.76518895 -67.53839111 40.58752441 C-67.57841487 44.488777 -67.62951461 48.3898827 -67.6796875 52.29101562 C-67.77647694 59.94390967 -67.86087189 67.59687472 -67.9375 75.25 C-68.2675 75.25 -68.5975 75.25 -68.9375 75.25 C-70.03383373 37.61018057 -70.03383373 37.61018057 -70.0625 20.5 C-70.06701172 19.39035889 -70.07152344 18.28071777 -70.07617188 17.13745117 C-70.07423828 16.12787354 -70.07230469 15.1182959 -70.0703125 14.078125 C-70.06918457 13.2109082 -70.06805664 12.34369141 -70.06689453 11.45019531 C-69.9375 9.25 -69.9375 9.25 -68.9375 6.25 C-68.2775 6.25 -67.6175 6.25 -66.9375 6.25 C-66.9375 5.59 -66.9375 4.93 -66.9375 4.25 C-76.1775 4.25 -85.4175 4.25 -94.9375 4.25 C-94.9375 5.9 -94.9375 7.55 -94.9375 9.25 C-98.5675 7.93 -102.1975 6.61 -105.9375 5.25 C-105.6075 3.93 -105.2775 2.61 -104.9375 1.25 C-103.82995865 1.25222061 -102.7224173 1.25444122 -101.58131409 1.25672913 C-91.12094014 1.27704026 -80.66057023 1.29201049 -70.20018101 1.30181217 C-64.82298012 1.30702077 -59.44579521 1.31408157 -54.06860352 1.32543945 C-48.87499269 1.33634036 -43.68139719 1.34229207 -38.4877758 1.34487724 C-36.51074927 1.34671853 -34.53372354 1.35031405 -32.55670357 1.35573006 C-29.77809999 1.36303618 -26.99955897 1.36398692 -24.22094727 1.36352539 C-23.41173828 1.36712067 -22.6025293 1.37071594 -21.76879883 1.37442017 C-17.09049302 1.36606424 -12.53670125 1.06593406 -7.89382839 0.4845953 C-5.26077535 0.16884981 -2.65064539 0.04563521 0 0 Z " fill="#6791EA" transform="translate(280.9375,80.75)"/>
<path d="M0 0 C2.0625 0.4375 2.0625 0.4375 4 1 C3.91959473 1.71091797 3.83918945 2.42183594 3.75634766 3.15429688 C2.42530755 15.07099828 1.12636398 26.97329182 0.42578125 38.9453125 C0.36176117 40.03842743 0.36176117 40.03842743 0.29644775 41.15362549 C0.09279884 44.71047451 -0.09432116 48.26760155 -0.26513672 51.82617188 C-0.33361816 53.11330078 -0.40209961 54.40042969 -0.47265625 55.7265625 C-0.52687744 56.86689941 -0.58109863 58.00723633 -0.63696289 59.18212891 C-1 62 -1 62 -3 65 C-5.01361084 65.25572205 -5.01361084 65.25572205 -7.52246094 65.08959961 C-8.4634967 65.03703506 -9.40453247 64.98447052 -10.37408447 64.93031311 C-11.40048035 64.85920822 -12.42687622 64.78810333 -13.484375 64.71484375 C-15.68147152 64.5918308 -17.87874721 64.47198529 -20.07617188 64.35498047 C-21.21852295 64.2921991 -22.36087402 64.22941772 -23.5378418 64.16473389 C-29.07049226 63.90148335 -34.60268823 63.82446671 -40.140625 63.75390625 C-42.32291743 63.72075302 -44.50520909 63.68754986 -46.6875 63.65429688 C-50.00973793 63.60636088 -53.33193364 63.56155398 -56.65429688 63.52319336 C-59.94159367 63.48368713 -63.22852772 63.43224974 -66.515625 63.37890625 C-68.01225677 63.36628502 -68.01225677 63.36628502 -69.53912354 63.35340881 C-70.46239441 63.33676682 -71.38566528 63.32012482 -72.33691406 63.30297852 C-73.54737396 63.28751732 -73.54737396 63.28751732 -74.7822876 63.27174377 C-77.2256803 62.97234663 -78.87763619 62.21867414 -81 61 C-79.35 61 -77.7 61 -76 61 C-76.350625 59.96875 -76.70125 58.9375 -77.0625 57.875 C-77.99513623 54.0201036 -77.92640921 51.79827774 -77 48 C-76.67 48 -76.34 48 -76 48 C-75.80083984 48.95712891 -75.80083984 48.95712891 -75.59765625 49.93359375 C-75.42105469 50.75988281 -75.24445313 51.58617187 -75.0625 52.4375 C-74.88847656 53.26121094 -74.71445313 54.08492187 -74.53515625 54.93359375 C-74.19247006 56.97661204 -74.19247006 56.97661204 -73 58 C-53.56038615 59.15936671 -30.89656785 57.07333736 -15.26953125 44.62109375 C-4.90570248 34.41711838 -2.60534453 14.64542854 -1 1 C-0.67 0.67 -0.34 0.34 0 0 Z " fill="#175DF7" transform="translate(170,172)"/>
<path d="M0 0 C0.99 0.33 1.98 0.66 3 1 C2.91621094 2.28390625 2.83242188 3.5678125 2.74609375 4.890625 C1.80235222 20.7065872 2.16314223 36.25550483 4 52 C2.02 52.495 2.02 52.495 0 53 C-0.36351562 51.92621094 -0.72703125 50.85242188 -1.1015625 49.74609375 C-4.83496606 38.85081534 -4.83496606 38.85081534 -12 30 C-21.1760558 26.94131473 -31.32758791 29 -41 29 C-41 48.8 -41 68.6 -41 89 C-41.99 88.67 -42.98 88.34 -44 88 C-44 67.87 -44 47.74 -44 27 C-43.34 26.67 -42.68 26.34 -42 26 C-41.34786708 23.97536745 -41.34786708 23.97536745 -41 22 C-40.67 22.33 -40.34 22.66 -40 23 C-37.15655771 23.10155151 -34.3433328 23.14187939 -31.5 23.125 C-30.67862549 23.12016602 -29.85725098 23.11533203 -29.01098633 23.11035156 C-17.58747103 23.42218155 -17.58747103 23.42218155 -8 18 C-6.41907426 15.17399604 -6.41907426 15.17399604 -5.3125 12.0625 C-4.91675781 11.04285156 -4.52101562 10.02320313 -4.11328125 8.97265625 C-3.74589844 7.99167969 -3.37851563 7.01070312 -3 6 C-1.12837838 1.12837838 -1.12837838 1.12837838 0 0 Z " fill="#6590E8" transform="translate(255,134)"/>
<path d="M0 0 C44.055 0.495 44.055 0.495 89 1 C88.67 1.66 88.34 2.32 88 3 C86.35 3 84.7 3 83 3 C83 3.66 83 4.32 83 5 C85.31 5.33 87.62 5.66 90 6 C89.67 6.66 89.34 7.32 89 8 C88.04657715 7.85925049 87.0931543 7.71850098 86.11083984 7.57348633 C76.64850622 6.24449165 67.35640241 5.65513619 57.80371094 5.68432617 C55.57701112 5.68756991 53.35154463 5.66359949 51.125 5.63867188 C49.70052249 5.63640586 48.27604145 5.63569212 46.8515625 5.63671875 C45.58135254 5.63373779 44.31114258 5.63075684 43.00244141 5.62768555 C42.01163574 5.75054932 41.02083008 5.87341309 40 6 C37.63753495 9.54369758 37.72995155 11.10250808 37.68115234 15.30737305 C37.66128265 16.60849533 37.64141296 17.90961761 37.62094116 19.25016785 C37.60906469 20.67068309 37.59740184 22.09120012 37.5859375 23.51171875 C37.56722765 24.96475833 37.54765438 26.41778703 37.5272522 27.87080383 C37.47590536 31.69297877 37.43629347 35.51518895 37.39910889 39.33752441 C37.35908513 43.238777 37.30798539 47.1398827 37.2578125 51.04101562 C37.16102306 58.69390967 37.07662811 66.34687472 37 74 C36.67 74 36.34 74 36 74 C34.90366627 36.36018057 34.90366627 36.36018057 34.875 19.25 C34.87048828 18.14035889 34.86597656 17.03071777 34.86132812 15.88745117 C34.86326172 14.87787354 34.86519531 13.8682959 34.8671875 12.828125 C34.86831543 11.9609082 34.86944336 11.09369141 34.87060547 10.20019531 C35 8 35 8 36 5 C36.66 5 37.32 5 38 5 C38 4.34 38 3.68 38 3 C28.76 3 19.52 3 10 3 C10 4.65 10 6.3 10 8 C6.37 6.68 2.74 5.36 -1 4 C-0.67 2.68 -0.34 1.36 0 0 Z " fill="#5772AD" transform="translate(176,82)"/>
<path d="M0 0 C0.66 0 1.32 0 2 0 C2.66 2.31 3.32 4.62 4 7 C4.66 7 5.32 7 6 7 C6.05572276 29.46179942 5.80132231 51.91202221 5.42494583 74.37034798 C5.32421268 80.38401025 5.2313651 86.39757956 5.15625 92.41162109 C5.08252168 98.30223682 4.98992509 104.19227406 4.88387299 110.08239365 C4.84695572 112.30937609 4.81667747 114.53647932 4.79331207 116.76364517 C4.75953826 119.86143194 4.70150395 122.95788216 4.63769531 126.05517578 C4.63337494 126.96320953 4.62905457 127.87124329 4.62460327 128.80679321 C4.47038385 134.66810526 3.30933321 138.14028307 0 143 C1.28583984 142.98259766 1.28583984 142.98259766 2.59765625 142.96484375 C8.50860552 142.9181959 14.18156704 142.91750084 20 144 C20 144.33 20 144.66 20 145 C9.11 145 -1.78 145 -13 145 C-12.505 143.02 -12.505 143.02 -12 141 C-11.38511719 140.86722656 -10.77023438 140.73445312 -10.13671875 140.59765625 C-8.92435547 140.33275391 -8.92435547 140.33275391 -7.6875 140.0625 C-6.88699219 139.88847656 -6.08648437 139.71445313 -5.26171875 139.53515625 C-2.854599 139.00113841 -2.854599 139.00113841 0 138 C2.19657818 133.24408488 2.31025871 128.56057311 2.3347168 123.41308594 C2.34636871 122.56949524 2.35802063 121.72590454 2.37002563 120.85675049 C2.40599099 118.06597808 2.42791973 115.27529504 2.44921875 112.484375 C2.47052811 110.51173199 2.49249787 108.53909601 2.51509094 106.56646729 C2.56053064 102.41381202 2.59926637 98.26116446 2.63305664 94.10839844 C2.67581199 88.89344401 2.73279393 83.67877307 2.79444695 78.46401215 C3.01948499 59.10257292 3.14874606 39.74857637 2.64453125 20.390625 C2.62866156 19.68365227 2.61279186 18.97667953 2.59644127 18.24828339 C2.54976475 16.28015539 2.48779046 14.31240794 2.42504883 12.34472656 C2.39163895 11.25565002 2.35822906 10.16657349 2.32380676 9.04449463 C1.97847278 5.79759686 1.1407496 3.05093967 0 0 Z " fill="#1A3CC1" transform="translate(68,90)"/>
<path d="M0 0 C0.66 0.33 1.32 0.66 2 1 C3.9593604 1.08510205 5.92162794 1.10717656 7.8828125 1.09765625 C9.63271484 1.09282227 9.63271484 1.09282227 11.41796875 1.08789062 C13.25294922 1.07532227 13.25294922 1.07532227 15.125 1.0625 C16.97158203 1.05573242 16.97158203 1.05573242 18.85546875 1.04882812 C21.90369392 1.0370133 24.95182314 1.02054028 28 1 C27.67 2.32 27.34 3.64 27 5 C29.475 5.495 29.475 5.495 32 6 C32 6.66 32 7.32 32 8 C33.32 8 34.64 8 36 8 C36 9.98 36 11.96 36 14 C35.2575 13.21625 34.515 12.4325 33.75 11.625 C24.12255748 2.43516851 17.26823286 7 1 7 C1 26.8 1 46.6 1 67 C0.01 66.67 -0.98 66.34 -2 66 C-2 45.87 -2 25.74 -2 5 C-1.34 4.67 -0.68 4.34 0 4 C0 2.68 0 1.36 0 0 Z " fill="#5671AB" transform="translate(213,156)"/>
<path d="M0 0 C0.66 0 1.32 0 2 0 C2.07014914 15.78590467 2.12301704 31.5717671 2.15543652 47.35778904 C2.17089101 54.68787923 2.1919533 62.01787245 2.22631836 69.34790039 C2.25626427 75.73838761 2.27558531 82.12880457 2.28226548 88.51936001 C2.28616899 91.9016575 2.29531288 95.28375406 2.31719017 98.66598701 C2.33896805 102.44614703 2.34196668 106.22589085 2.34057617 110.00610352 C2.35675491 111.67953827 2.35675491 111.67953827 2.3732605 113.38677979 C2.34939397 119.38322215 1.85442044 123.69082922 -1 129 C-1.66 129 -2.32 129 -3 129 C-2.67657623 127.92782227 -2.35315247 126.85564453 -2.01992798 125.75097656 C-0.63802265 120.18326279 -0.69233767 114.69397704 -0.68115234 108.984375 C-0.67110672 107.80302475 -0.6610611 106.6216745 -0.65071106 105.40452576 C-0.61994672 101.51968855 -0.60286242 97.63492006 -0.5859375 93.75 C-0.56829855 91.04856911 -0.54774185 88.34716252 -0.5272522 85.64575195 C-0.48059298 79.27471902 -0.44378697 72.90366937 -0.41057932 66.53255367 C-0.37226668 59.27489445 -0.32288069 52.01732353 -0.27259517 44.75973892 C-0.16946673 29.83989134 -0.0801447 14.91999009 0 0 Z " fill="#5B7CC2" transform="translate(190,98)"/>
<path d="M0 0 C2.0625 0.4375 2.0625 0.4375 4 1 C3.91959473 1.71091797 3.83918945 2.42183594 3.75634766 3.15429688 C2.42530755 15.07099828 1.12636398 26.97329182 0.42578125 38.9453125 C0.3831012 39.67405579 0.34042114 40.40279907 0.29644775 41.15362549 C0.09279884 44.71047451 -0.09432116 48.26760155 -0.26513672 51.82617188 C-0.33361816 53.11330078 -0.40209961 54.40042969 -0.47265625 55.7265625 C-0.52687744 56.86689941 -0.58109863 58.00723633 -0.63696289 59.18212891 C-1 62 -1 62 -3 65 C-5.1640625 65.29296875 -5.1640625 65.29296875 -7.625 65.1875 C-8.44226563 65.16042969 -9.25953125 65.13335937 -10.1015625 65.10546875 C-10.72804687 65.07066406 -11.35453125 65.03585938 -12 65 C-12 64.67 -12 64.34 -12 64 C-9.36 64 -6.72 64 -4 64 C-3.71226256 59.01969345 -3.42753903 54.03922671 -3.14550781 49.05859375 C-3.04931451 47.36714113 -2.95232311 45.67573369 -2.85449219 43.984375 C-2.71335188 41.5417836 -2.57516066 39.09903969 -2.4375 36.65625 C-2.37187866 35.53700134 -2.37187866 35.53700134 -2.30493164 34.3951416 C-2.03769003 29.58882536 -1.9619459 24.81384333 -2 20 C-2.0825 20.94875 -2.165 21.8975 -2.25 22.875 C-2.95485663 27.90093421 -5.02436912 32.36285885 -7 37 C-7.31839844 37.85722656 -7.63679687 38.71445313 -7.96484375 39.59765625 C-9.43415026 43.00755627 -11.54968248 45.22727228 -14 48 C-15.32 47.67 -16.64 47.34 -18 47 C-17.34644531 46.4121875 -17.34644531 46.4121875 -16.6796875 45.8125 C-5.39395272 34.47790922 -2.7923368 16.23486281 -1 1 C-0.67 0.67 -0.34 0.34 0 0 Z " fill="#22489E" transform="translate(170,172)"/>
<path d="M0 0 C18.48 0 36.96 0 56 0 C56.495 1.98 56.495 1.98 57 4 C56.18015625 4.15855469 55.3603125 4.31710938 54.515625 4.48046875 C47.82516751 5.77928302 47.82516751 5.77928302 42.375 9.5625 C41.92125 10.366875 41.4675 11.17125 41 12 C40.34 12.66 39.68 13.32 39 14 C39.45949002 8.63928314 40.64675606 8.35324394 45 4 C33.78 3.67 22.56 3.34 11 3 C11.33 4.65 11.66 6.3 12 8 C11.43796875 7.69320312 10.8759375 7.38640625 10.296875 7.0703125 C7.93653066 5.97042415 5.79534438 5.39904149 3.25 4.875 C2.45078125 4.70742187 1.6515625 4.53984375 0.828125 4.3671875 C0.22484375 4.24601562 -0.3784375 4.12484375 -1 4 C-0.67 2.68 -0.34 1.36 0 0 Z " fill="#224084" transform="translate(56,82)"/>
<path d="M0 0 C28.05 0 56.1 0 85 0 C84.67 0.66 84.34 1.32 84 2 C82.35 2 80.7 2 79 2 C79 2.66 79 3.32 79 4 C81.31 4.33 83.62 4.66 86 5 C85.67 5.66 85.34 6.32 85 7 C84.05382812 6.8570752 83.10765625 6.71415039 82.1328125 6.56689453 C71.70349178 5.07873278 61.52140474 4.75487194 51 4.875 C49.43490169 4.88507016 47.86979696 4.89418874 46.3046875 4.90234375 C42.53629437 4.92399123 38.76822222 4.95828773 35 5 C35 4.34 35 3.68 35 3 C46.55 2.67 58.1 2.34 70 2 C46.9 1.67 23.8 1.34 0 1 C0 0.67 0 0.34 0 0 Z " fill="#4A5D87" transform="translate(180,83)"/>
<path d="M0 0 C0.33 0 0.66 0 1 0 C1.09919164 6.13805474 1.17162165 12.27563853 1.21972656 18.41430664 C1.23978913 20.50065239 1.2670459 22.58694227 1.30175781 24.6730957 C1.35051159 27.67933978 1.37302267 30.68483769 1.390625 33.69140625 C1.41127014 34.61772354 1.43191528 35.54404083 1.45318604 36.49842834 C1.45525821 42.53671422 0.4471435 46.0171481 -3 51 C-1.71416016 50.98259766 -1.71416016 50.98259766 -0.40234375 50.96484375 C5.50860552 50.9181959 11.18156704 50.91750084 17 52 C17 52.33 17 52.66 17 53 C6.11 53 -4.78 53 -16 53 C-15.67 51.68 -15.34 50.36 -15 49 C-14.07767578 48.80083984 -14.07767578 48.80083984 -13.13671875 48.59765625 C-12.32847656 48.42105469 -11.52023438 48.24445313 -10.6875 48.0625 C-9.88699219 47.88847656 -9.08648437 47.71445313 -8.26171875 47.53515625 C-5.854599 47.00113841 -5.854599 47.00113841 -3 46 C-0.65877878 41.00362331 -0.65992749 36.07010515 -0.5859375 30.6640625 C-0.56657135 29.78471039 -0.5472052 28.90535828 -0.5272522 27.99935913 C-0.46777185 25.20800282 -0.4211979 22.41660457 -0.375 19.625 C-0.33679115 17.72524306 -0.29773774 15.8255029 -0.2578125 13.92578125 C-0.16209643 9.2839915 -0.0779496 4.64212071 0 0 Z " fill="#1A3F88" transform="translate(71,182)"/>
<path d="M0 0 C0.66 0 1.32 0 2 0 C2.33 20.46 2.66 40.92 3 62 C2.01 61.67 1.02 61.34 0 61 C0 40.87 0 20.74 0 0 Z " fill="#455B8C" transform="translate(211,161)"/>
<path d="M0 0 C0.33 0 0.66 0 1 0 C1.66 2.97 2.32 5.94 3 9 C5.31 9.66 7.62 10.32 10 11 C10 11.66 10 12.32 10 13 C27.82 13.33 45.64 13.66 64 14 C64 14.66 64 15.32 64 16 C55.72435394 15.91559753 47.44892258 15.82071479 39.17355728 15.71247292 C35.33091081 15.66253995 31.48829143 15.61620977 27.64550781 15.578125 C23.93658312 15.5412341 20.22788671 15.49486404 16.51915741 15.44193649 C15.10463213 15.42341271 13.69005795 15.40829728 12.27545929 15.39665604 C10.29324238 15.37975987 8.31115208 15.34959077 6.32910156 15.31884766 C5.20103088 15.30552399 4.07296021 15.29220032 2.91070557 15.2784729 C0.08051088 15.00770263 -1.5972224 14.46774456 -4 13 C-2.35 13 -0.7 13 1 13 C0.649375 11.96875 0.29875 10.9375 -0.0625 9.875 C-0.99513623 6.0201036 -0.92640921 3.79827774 0 0 Z " fill="#1D3465" transform="translate(93,220)"/>
<path d="M0 0 C0.33 0 0.66 0 1 0 C1.43112679 4.16220814 1.85823695 8.32480367 2.28173828 12.48779297 C2.42616042 13.90196676 2.57165187 15.3160318 2.71826172 16.72998047 C2.92961911 18.77022629 3.13704242 20.81084097 3.34375 22.8515625 C3.53227539 24.68968506 3.53227539 24.68968506 3.72460938 26.56494141 C3.97830546 29.7293952 4.0509657 32.8273849 4 36 C2.68 36 1.36 36 0 36 C-0.67155349 33.73050898 -1.3373963 31.4596039 -2 29.1875 C-2.37125 27.92292969 -2.7425 26.65835938 -3.125 25.35546875 C-4 22 -4 22 -4 19 C-3.34 19 -2.68 19 -2 19 C-1.34 12.73 -0.68 6.46 0 0 Z " fill="#4F679E" transform="translate(288,101)"/>
<path d="M0 0 C0 0.66 0 1.32 0 2 C-2.97 2.66 -5.94 3.32 -9 4 C-9 4.66 -9 5.32 -9 6 C-12.60401481 6.08701039 -16.20776012 6.14039388 -19.8125 6.1875 C-21.34874023 6.22520508 -21.34874023 6.22520508 -22.91601562 6.26367188 C-24.39038086 6.27817383 -24.39038086 6.27817383 -25.89453125 6.29296875 C-26.80050049 6.3086792 -27.70646973 6.32438965 -28.63989258 6.34057617 C-31.42444206 5.93875073 -32.27599535 5.16311438 -34 3 C-32.2675 3.061875 -32.2675 3.061875 -30.5 3.125 C-22.45423533 3.13781173 -14.13685108 2.06406201 -6.265625 0.43359375 C-4 0 -4 0 0 0 Z " fill="#185EEA" transform="translate(137,227)"/>
<path d="M0 0 C0.96528043 2.89584128 1.17770587 4.95032436 1.28125 7.97265625 C1.31863281 8.95556641 1.35601562 9.93847656 1.39453125 10.95117188 C1.42933594 11.97791016 1.46414063 13.00464844 1.5 14.0625 C1.7559127 21.4128814 2.16818569 28.69033082 3 36 C1.02 36.495 1.02 36.495 -1 37 C-1.66 34.03 -2.32 31.06 -3 28 C-2.34 28.66 -1.68 29.32 -1 30 C-1 27.08865751 -1.13322298 24.21552951 -1.2890625 21.30859375 C-1.34320313 20.19935547 -1.39734375 19.09011719 -1.453125 17.94726562 C-1.56791846 15.60313097 -1.69034344 13.25935786 -1.8203125 10.91601562 C-1.871875 9.80806641 -1.9234375 8.70011719 -1.9765625 7.55859375 C-2.02893066 6.54079834 -2.08129883 5.52300293 -2.13525391 4.47436523 C-2 2 -2 2 0 0 Z " fill="#4E71A7" transform="translate(256,150)"/>
<path d="M0 0 C1.98 0 3.96 0 6 0 C6 0.66 6 1.32 6 2 C17.88 2 29.76 2 42 2 C42 2.33 42 2.66 42 3 C31.77 3 21.54 3 11 3 C11.33 4.65 11.66 6.3 12 8 C11.43796875 7.69320312 10.8759375 7.38640625 10.296875 7.0703125 C7.93653066 5.97042415 5.79534438 5.39904149 3.25 4.875 C2.45078125 4.70742187 1.6515625 4.53984375 0.828125 4.3671875 C0.22484375 4.24601562 -0.3784375 4.12484375 -1 4 C-0.67 2.68 -0.34 1.36 0 0 Z " fill="#2A5FDA" transform="translate(56,82)"/>
<path d="M0 0 C0.33 0 0.66 0 1 0 C1.47618833 7.38091906 0.02958023 12.32165527 -3 19 C-3.3196875 19.85464844 -3.639375 20.70929688 -3.96875 21.58984375 C-5.43135964 25.00813976 -7.54651834 27.22369181 -10 30 C-11.32 29.67 -12.64 29.34 -14 29 C-13.56429687 28.608125 -13.12859375 28.21625 -12.6796875 27.8125 C-5.40713167 20.50846124 -1.68211807 10.07314891 0 0 Z " fill="#2548A2" transform="translate(166,190)"/>
<path d="M0 0 C1.32 0.33 2.64 0.66 4 1 C3.34 6.61 2.68 12.22 2 18 C1.67 18 1.34 18 1 18 C0.67 15.36 0.34 12.72 0 10 C-0.12375 11.134375 -0.2475 12.26875 -0.375 13.4375 C-0.58125 14.613125 -0.7875 15.78875 -1 17 C-1.66 17.33 -2.32 17.66 -3 18 C-2.67352516 14.99921002 -2.33790914 11.99952226 -2 9 C-1.91621094 8.2265625 -1.83242187 7.453125 -1.74609375 6.65625 C-1.11349693 1.11349693 -1.11349693 1.11349693 0 0 Z " fill="#2A4AA0" transform="translate(170,172)"/>
<path d="M0 0 C1.79093191 -0.08086147 3.58289628 -0.13912702 5.375 -0.1875 C6.87160156 -0.23970703 6.87160156 -0.23970703 8.3984375 -0.29296875 C9.25695312 -0.19628906 10.11546875 -0.09960938 11 0 C13.52775351 3.79163027 13.22443035 6.80874031 13.125 11.1875 C13.11597656 11.93708984 13.10695313 12.68667969 13.09765625 13.45898438 C13.07412578 15.30612654 13.03825561 17.15310412 13 19 C12.34 19 11.68 19 11 19 C9.7960663 15.24600202 9.90122383 11.66782588 9.9375 7.75 C9.94652344 6.48671875 9.95554687 5.2234375 9.96484375 3.921875 C9.97644531 2.95765625 9.98804688 1.9934375 10 1 C6.7 1 3.4 1 0 1 C0 0.67 0 0.34 0 0 Z " fill="#546A9B" transform="translate(275,81)"/>
<path d="M0 0 C0.99 0.33 1.98 0.66 3 1 C5.80160502 1.1539263 8.58298425 1.25738045 11.38671875 1.31640625 C12.61223198 1.3475779 12.61223198 1.3475779 13.86250305 1.37937927 C16.47075034 1.44473079 19.07909775 1.50369273 21.6875 1.5625 C23.45639054 1.60569892 25.22527097 1.64931365 26.99414062 1.69335938 C31.32932463 1.80039743 35.66460929 1.90170544 40 2 C40 2.33 40 2.66 40 3 C24.16 3 8.32 3 -8 3 C-8 2.67 -8 2.34 -8 2 C-5.36 2 -2.72 2 0 2 C0 1.34 0 0.68 0 0 Z " fill="#2961DD" transform="translate(103,231)"/>
<path d="M0 0 C0.33 0 0.66 0 1 0 C1.05392397 2.77109307 1.09363455 5.54113818 1.125 8.3125 C1.14175781 9.09818359 1.15851563 9.88386719 1.17578125 10.69335938 C1.18222656 11.45068359 1.18867188 12.20800781 1.1953125 12.98828125 C1.20578613 13.68477783 1.21625977 14.38127441 1.22705078 15.09887695 C1 17 1 17 -1 20 C-3.1640625 20.29296875 -3.1640625 20.29296875 -5.625 20.1875 C-6.85089844 20.14689453 -6.85089844 20.14689453 -8.1015625 20.10546875 C-8.72804687 20.07066406 -9.35453125 20.03585938 -10 20 C-10 19.67 -10 19.34 -10 19 C-7.36 19 -4.72 19 -2 19 C-1.93941406 17.79601562 -1.87882813 16.59203125 -1.81640625 15.3515625 C-1.73200268 13.77602923 -1.64735459 12.20050904 -1.5625 10.625 C-1.50352539 9.43390625 -1.50352539 9.43390625 -1.44335938 8.21875 C-1.11328125 2.2265625 -1.11328125 2.2265625 0 0 Z " fill="#19387B" transform="translate(168,217)"/>
<path d="M0 0 C0.33 0 0.66 0 1 0 C1.66 2.97 2.32 5.94 3 9 C5.31 9.66 7.62 10.32 10 11 C10 11.66 10 12.32 10 13 C5.38 13.33 0.76 13.66 -4 14 C-4 13.67 -4 13.34 -4 13 C-2.35 13 -0.7 13 1 13 C0.649375 11.96875 0.29875 10.9375 -0.0625 9.875 C-0.99513623 6.0201036 -0.92640921 3.79827774 0 0 Z " fill="#1C449B" transform="translate(93,220)"/>
<path d="M0 0 C0.68707555 2.49064888 1 4.37886292 1 7 C-2.63 7 -6.26 7 -10 7 C-10 6.01 -10 5.02 -10 4 C-9.36191406 3.79503906 -8.72382813 3.59007812 -8.06640625 3.37890625 C-7.24011719 3.10949219 -6.41382813 2.84007812 -5.5625 2.5625 C-4.73878906 2.29566406 -3.91507813 2.02882812 -3.06640625 1.75390625 C-1.03780412 1.17844506 -1.03780412 1.17844506 0 0 Z " fill="#617EC8" transform="translate(186,227)"/>
<path d="M0 0 C0.33 0 0.66 0 1 0 C1.33 4.29 1.66 8.58 2 13 C0.68 13 -0.64 13 -2 13 C-2.66 9.7 -3.32 6.4 -4 3 C-3.01 3.99 -2.02 4.98 -1 6 C-0.67 4.02 -0.34 2.04 0 0 Z " fill="#435A87" transform="translate(290,124)"/>
<path d="M0 0 C0.66 0.33 1.32 0.66 2 1 C1.51917969 1.72445312 1.03835937 2.44890625 0.54296875 3.1953125 C-2.03621329 8.35367658 -1.57610601 14.23528127 -1.6875 19.875 C-1.72166016 21.0403125 -1.75582031 22.205625 -1.79101562 23.40625 C-1.87319354 26.27073718 -1.94244421 29.13492985 -2 32 C-2.33 32 -2.66 32 -3 32 C-3.02896822 27.56251365 -3.04678788 23.12505153 -3.0625 18.6875 C-3.07087891 17.42486328 -3.07925781 16.16222656 -3.08789062 14.86132812 C-3.09111328 13.65283203 -3.09433594 12.44433594 -3.09765625 11.19921875 C-3.10289307 10.08377686 -3.10812988 8.96833496 -3.11352539 7.8190918 C-3 5 -3 5 -2 2 C-1.34 2 -0.68 2 0 2 C0 1.34 0 0.68 0 0 Z " fill="#6989D0" transform="translate(214,85)"/>
<path d="M0 0 C2.64 0.99 5.28 1.98 8 3 C8 3.66 8 4.32 8 5 C10.31 5 12.62 5 15 5 C15 5.66 15 6.32 15 7 C9.72 7 4.44 7 -1 7 C-1 6.67 -1 6.34 -1 6 C1.64 6 4.28 6 7 6 C7 5.34 7 4.68 7 4 C5.02 4 3.04 4 1 4 C0.67 2.68 0.34 1.36 0 0 Z " fill="#5F86CB" transform="translate(217,227)"/>
<path d="M0 0 C0 0.66 0 1.32 0 2 C-5.62257161 3.9169573 -10.52369385 4.24889924 -16.4375 4.125 C-17.26443359 4.11597656 -18.09136719 4.10695312 -18.94335938 4.09765625 C-20.96236708 4.07431512 -22.98122356 4.03845288 -25 4 C-25 3.67 -25 3.34 -25 3 C-23.35451172 2.80083984 -23.35451172 2.80083984 -21.67578125 2.59765625 C-20.22134199 2.41937015 -18.76691558 2.2409792 -17.3125 2.0625 C-16.2306543 1.93198242 -16.2306543 1.93198242 -15.12695312 1.79882812 C-12.13166631 1.42954619 -9.18887351 1.03862716 -6.23046875 0.43359375 C-4 0 -4 0 0 0 Z " fill="#224A9F" transform="translate(137,227)"/>
<path d="M0 0 C1.98 0 3.96 0 6 0 C4.68 0.33 3.36 0.66 2 1 C2 1.66 2 2.32 2 3 C4.97 3 7.94 3 11 3 C11.33 4.65 11.66 6.3 12 8 C11.43796875 7.69320312 10.8759375 7.38640625 10.296875 7.0703125 C7.93653066 5.97042415 5.79534438 5.39904149 3.25 4.875 C2.45078125 4.70742187 1.6515625 4.53984375 0.828125 4.3671875 C0.22484375 4.24601562 -0.3784375 4.12484375 -1 4 C-0.67 2.68 -0.34 1.36 0 0 Z " fill="#1E3D86" transform="translate(56,82)"/>
<path d="M0 0 C1.98 0.495 1.98 0.495 4 1 C3.34 1 2.68 1 2 1 C2 1.66 2 2.32 2 3 C2.763125 2.95875 3.52625 2.9175 4.3125 2.875 C7 3 7 3 10 5 C9.67 5.99 9.34 6.98 9 8 C7.27473958 7.25130208 5.54947917 6.50260417 3.82421875 5.75390625 C2.24288979 5.10038058 0.62324594 4.54108198 -1 4 C-0.67 2.68 -0.34 1.36 0 0 Z " fill="#4B5B8E" transform="translate(176,82)"/>
<path d="M0 0 C-1.52708963 3.43595166 -3.59927045 6.11912454 -6 9 C-7.32 8.67 -8.64 8.34 -10 8 C-8.90653119 6.65787938 -7.7998425 5.32652025 -6.6875 4 C-5.76517578 2.88625 -5.76517578 2.88625 -4.82421875 1.75 C-3 0 -3 0 0 0 Z " fill="#1E4BAE" transform="translate(162,211)"/>
<path d="M0 0 C0.66 0 1.32 0 2 0 C2.66 1.65 3.32 3.3 4 5 C4.66 4.34 5.32 3.68 6 3 C6.66 6.63 7.32 10.26 8 14 C7.34 13.67 6.68 13.34 6 13 C5.375 10.4375 5.375 10.4375 5 8 C4.34 8 3.68 8 3 8 C2.01 5.36 1.02 2.72 0 0 Z " fill="#597DC7" transform="translate(249,170)"/>
<path d="M0 0 C0 0.66 0 1.32 0 2 C-3.54635491 5.03973278 -7.24667436 7.34166151 -12 7.3125 C-13.485 7.1578125 -13.485 7.1578125 -15 7 C-12.35658072 5.23772048 -9.76922765 3.80128992 -6.9375 2.375 C-6.05964844 1.92898437 -5.18179688 1.48296875 -4.27734375 1.0234375 C-2 0 -2 0 0 0 Z " fill="#224594" transform="translate(152,220)"/>
<path d="M0 0 C0.33 0 0.66 0 1 0 C1.33 3.3 1.66 6.6 2 10 C0.68 10.33 -0.64 10.66 -2 11 C-2.66 8.03 -3.32 5.06 -4 2 C-2 4 -2 4 -1 7 C-0.67 4.69 -0.34 2.38 0 0 Z " fill="#3E4D70" transform="translate(257,176)"/>
<path d="M0 0 C2.64 0 5.28 0 8 0 C8.33 1.32 8.66 2.64 9 4 C6.69 4 4.38 4 2 4 C1.34 2.68 0.68 1.36 0 0 Z " fill="#2D5099" transform="translate(104,82)"/>
<path d="M0 0 C4.29 0.66 8.58 1.32 13 2 C13 2.33 13 2.66 13 3 C6.07 3 -0.86 3 -8 3 C-8 2.67 -8 2.34 -8 2 C-5.36 2 -2.72 2 0 2 C0 1.34 0 0.68 0 0 Z " fill="#3B77E8" transform="translate(103,231)"/>
<path d="M0 0 C0.33 0 0.66 0 1 0 C1.06058594 1.10859375 1.12117187 2.2171875 1.18359375 3.359375 C1.26802951 4.8229282 1.35267599 6.28646925 1.4375 7.75 C1.47681641 8.47960937 1.51613281 9.20921875 1.55664062 9.9609375 C1.76147098 13.4272973 2.0852002 16.65333026 3 20 C2.01 19.67 1.02 19.34 0 19 C0 12.73 0 6.46 0 0 Z " fill="#638ACF" transform="translate(211,203)"/>
<path d="M0 0 C2.0625 0.4375 2.0625 0.4375 4 1 C4 1.66 4 2.32 4 3 C5.32 3 6.64 3 8 3 C8 4.98 8 6.96 8 9 C7.2575 8.236875 6.515 7.47375 5.75 6.6875 C3.5736677 4.5606298 1.47832204 2.7440044 -1 1 C-0.67 0.67 -0.34 0.34 0 0 Z " fill="#4D689B" transform="translate(241,161)"/>
<path d="M0 0 C2.31 0 4.62 0 7 0 C7 1.32 7 2.64 7 4 C4.36 4 1.72 4 -1 4 C-0.67 2.68 -0.34 1.36 0 0 Z " fill="#5574AD" transform="translate(250,84)"/>
<path d="M0 0 C2.0625 0.4375 2.0625 0.4375 4 1 C3.67 3.64 3.34 6.28 3 9 C2.67 9 2.34 9 2 9 C2 6.69 2 4.38 2 2 C1.34 2 0.68 2 0 2 C0 3.98 0 5.96 0 8 C-0.33 8 -0.66 8 -1 8 C-1.04241723 5.66705225 -1.04092937 3.33297433 -1 1 C-0.67 0.67 -0.34 0.34 0 0 Z " fill="#2A3864" transform="translate(170,172)"/>
<path d="M0 0 C3.375 -0.1875 3.375 -0.1875 7 0 C7.66 0.99 8.32 1.98 9 3 C6.03 3 3.06 3 0 3 C0 2.01 0 1.02 0 0 Z " fill="#2E59B1" transform="translate(56,231)"/>
<path d="M0 0 C0.33 0 0.66 0 1 0 C1.25 6.625 1.25 6.625 -1 10 C-1.66 10 -2.32 10 -3 10 C-2.01 6.7 -1.02 3.4 0 0 Z " fill="#546AA6" transform="translate(252,140)"/>
<path d="M0 0 C2.97 0.33 5.94 0.66 9 1 C8.67 1.66 8.34 2.32 8 3 C5.6875 3.1875 5.6875 3.1875 3 3 C2.01 2.01 1.02 1.02 0 0 Z " fill="#1342C7" transform="translate(103,230)"/>
<path d="M0 0 C0.66 0.99 1.32 1.98 2 3 C1.01 3.495 1.01 3.495 0 4 C-0.33 4.99 -0.66 5.98 -1 7 C-2.65 7 -4.3 7 -6 7 C-4.02 4.69 -2.04 2.38 0 0 Z " fill="#526EA3" transform="translate(248,150)"/>
<path d="M0 0 C0 1.98 0 3.96 0 6 C-0.99 6.495 -0.99 6.495 -2 7 C-2.66 5.35 -3.32 3.7 -4 2 C-1 0 -1 0 0 0 Z " fill="#658CE9" transform="translate(290,124)"/>
</svg>
